<svg width="40" height="40" viewBox="0 0 40 40" fill="none" xmlns="http://www.w3.org/2000/svg">
<g clip-path="url(#clip0_2_596)">
<path d="M17.187 35.1603H2.62646V30.4447C2.62646 29.4519 3.04012 28.5005 3.82605 27.88C8.08665 24.364 12.7195 22.0476 13.6296 21.5926C13.7537 21.5512 13.795 21.4271 13.795 21.303V18.8625C13.1746 17.787 12.8023 16.5874 12.6368 15.5119C12.2645 15.4705 11.7681 14.9741 11.2304 13.0714C10.5686 10.6722 11.189 10.1758 11.8095 10.1758C11.8509 10.1758 11.8922 10.1758 11.9336 10.1758C11.4372 8.81075 11.4372 7.48707 11.7681 6.28749C12.0991 4.83971 12.885 3.68149 13.7537 2.77146C14.2914 2.19235 14.9532 1.6546 15.6151 1.24095C16.1528 0.868666 16.7733 0.537746 17.3938 0.33092C17.9315 0.16546 18.4693 0.0413651 19.0484 0.0413651C19.2966 9.24581e-09 19.5034 0 19.7516 0C21.1994 0 22.3162 0.41365 23.1435 0.910031C24.5913 1.69597 25.129 2.77146 25.129 2.77146C25.129 2.77146 28.7692 3.01965 27.1559 10.6308C27.6523 10.7963 27.9832 11.4581 27.4041 13.485C26.8664 15.4292 26.3286 15.9255 25.9563 15.9255C25.8323 15.9255 25.7495 15.8842 25.6668 15.8428C25.5013 16.7115 25.2531 17.6215 24.8395 18.4902C24.8395 19.7311 24.8395 20.8893 24.8395 21.3444C24.8395 21.4685 24.9222 21.5512 25.005 21.6339C25.4186 21.8407 26.6182 22.4612 28.2314 23.3713C28.1073 23.4953 27.9419 23.6194 27.8178 23.7435C26.7009 24.819 26.1218 26.2254 26.1218 27.8387C26.1218 29.7415 26.7836 30.9411 27.4869 31.6856C27.0318 31.8097 26.6596 32.0579 26.3286 32.3888C25.8736 32.8852 25.6254 33.5057 25.6668 34.1675C25.6668 34.5398 25.7495 34.8707 25.7909 35.2017H21.5717H17.187V35.1603ZM33.6089 21.9235H32.2025C31.9956 21.9235 31.8302 22.0889 31.8302 22.2958V23.9504C30.7547 24.1158 29.9274 24.4881 29.2656 25.1086C28.5623 25.8118 28.1901 26.6805 28.1901 27.7559C28.1901 28.9555 28.521 29.8242 29.2242 30.4447C29.9274 31.0651 31.0029 31.6443 32.492 32.2647C33.1125 32.5129 33.5262 32.8025 33.7743 33.092C34.0225 33.3816 34.1466 33.7539 34.1466 34.2503C34.1466 34.6639 34.0225 35.0362 33.7743 35.2844C33.5262 35.5326 33.1952 35.698 32.7402 35.698C32.2025 35.698 31.7475 35.5326 31.4165 35.1603C31.127 34.8707 30.9615 34.4571 30.9202 33.878C30.9202 33.6711 30.7133 33.4643 30.4651 33.4643L28.1901 33.5057C27.9419 33.5057 27.735 33.7125 27.735 33.9607C27.7764 35.1603 28.1901 36.1117 28.8933 36.7735C29.6792 37.4767 30.672 37.8904 31.8302 38.0558V39.6277C31.8302 39.8345 31.9956 40 32.2025 40H33.6089C33.8157 40 33.9812 39.8345 33.9812 39.6277V38.0145C34.9326 37.849 35.6771 37.4767 36.2976 36.8976C37.0008 36.2358 37.3317 35.3257 37.3317 34.2503C37.3317 33.092 37.0008 32.182 36.2976 31.5615C35.5944 30.9411 34.5189 30.3206 33.0298 29.7001C32.4093 29.4105 31.9543 29.1624 31.7475 28.8728C31.4993 28.5832 31.4165 28.2523 31.4165 27.7973C31.4165 27.3837 31.5406 27.0114 31.7475 26.7218C31.9543 26.4323 32.2852 26.3082 32.7402 26.3082C33.1952 26.3082 33.5262 26.4736 33.8157 26.8046C34.0225 27.0941 34.1466 27.4664 34.188 27.9628C34.188 28.1696 34.3948 28.3351 34.643 28.3351L36.9181 28.2937C37.1663 28.2937 37.3731 28.0869 37.3731 27.8387C37.3317 26.8459 37.0008 26.0186 36.4217 25.3154C35.8012 24.6122 35.0153 24.1572 34.0225 23.9504V22.213C34.0225 22.0889 33.8157 21.9235 33.6089 21.9235Z" fill="#FF5A3C"/>
</g>
<defs>
<clipPath id="clip0_2_596">
<rect width="40" height="40" fill="white"/>
</clipPath>
</defs>
</svg>
