<svg width="20" height="19" viewBox="0 0 20 19" fill="none" xmlns="http://www.w3.org/2000/svg">
<path fill-rule="evenodd" clip-rule="evenodd" d="M2.33637 6.61293C2.10291 8.67355 2.11332 11.0501 2.43817 13.1024C2.61792 14.2379 3.59348 15.1085 4.7977 15.2079L6.05623 15.3119C8.68043 15.5286 11.3195 15.5286 13.9437 15.3119L15.2022 15.2079C16.4064 15.1085 17.382 14.2379 17.5617 13.1024C17.8866 11.0501 17.897 8.67369 17.6636 6.61305C17.6334 6.37416 17.5994 6.13559 17.5617 5.89741C17.382 4.76185 16.4064 3.8913 15.2022 3.79186L13.9437 3.68792C11.3195 3.47121 8.68043 3.47121 6.05623 3.68792L4.7977 3.79186C3.59348 3.8913 2.61792 4.76185 2.43817 5.89741C2.40048 6.13554 2.36654 6.37408 2.33637 6.61293ZM6.16448 4.87096C8.71665 4.6602 11.2833 4.6602 13.8354 4.87096L15.094 4.97489C15.7226 5.02681 16.2318 5.48124 16.3256 6.074C16.3354 6.13556 16.3449 6.19714 16.3541 6.25876L11.7199 8.70457C10.6503 9.26911 9.34961 9.26911 8.27994 8.70457L3.64583 6.25879C3.65505 6.19716 3.66453 6.13557 3.67427 6.074C3.7681 5.48124 4.27735 5.02681 4.90595 4.97489L6.16448 4.87096ZM16.507 7.53648C16.6687 9.33178 16.6082 11.1406 16.3256 12.9258C16.2318 13.5186 15.7226 13.973 15.094 14.0249L13.8354 14.1288C11.2833 14.3396 8.71665 14.3396 6.16448 14.1288L4.90595 14.0249C4.27735 13.973 3.7681 13.5186 3.67427 12.9258C3.3917 11.1406 3.33123 9.3318 3.49287 7.53651L7.67289 9.74263C9.12008 10.5064 10.8798 10.5064 12.327 9.74263L16.507 7.53648Z" fill="#FF5A3C"/>
</svg>
