<svg width="51" height="52" viewBox="0 0 51 52" fill="none" xmlns="http://www.w3.org/2000/svg">
<path d="M25.5 4.3313C37.2385 4.3313 46.7543 14.0336 46.7543 26.0023C46.7543 26.8495 46.7054 27.6858 46.6119 28.5091C45.7246 27.5817 44.6955 26.8075 43.5646 26.2168V26.0001C43.5646 24.5073 43.3925 23.0535 43.0631 21.6668H35.9274C36.0336 22.7891 36.0974 23.9418 36.1186 25.114C34.9945 25.3263 33.9278 25.699 32.9396 26.2146V26.0023C32.9396 24.5051 32.8631 23.0556 32.7186 21.6668H18.2814C17.9076 25.275 18.0041 28.9178 18.5682 32.5001H27.3594C26.9607 33.542 26.7089 34.6362 26.6114 35.7501H19.2525C20.638 40.9805 23.0478 44.4211 25.5 44.4211C26.4648 44.4211 27.4253 43.886 28.3178 42.9175C29.0849 44.2521 30.0858 45.5651 31.2906 46.8565C29.4483 47.3873 27.506 47.6711 25.4979 47.6711C13.7615 47.6711 4.25 37.9688 4.25 26.0023C4.24788 14.0336 13.7615 4.3313 25.5 4.3313ZM15.9545 35.7523H10.1702C12.2223 39.0988 15.2709 41.6879 18.87 43.1406C17.7607 41.364 16.8449 39.141 16.1713 36.6081L15.9545 35.7523ZM15.0747 21.6668H7.939L7.92838 21.7036C7.59938 23.1119 7.43391 24.5547 7.43538 26.0023C7.43538 28.2903 7.84338 30.4808 8.59138 32.5023H15.334C15.0235 30.3495 14.87 28.1761 14.875 26.0001C14.875 24.5181 14.943 23.0665 15.0769 21.6646L15.0747 21.6668ZM18.87 8.8618L18.8211 8.87913C14.4721 10.6498 10.9639 14.0677 9.03125 18.4168H15.5082C16.1755 14.6208 17.3357 11.3145 18.8721 8.8618H18.87ZM25.5 7.5813L25.2514 7.59213C22.5675 7.84347 19.9686 12.1811 18.7638 18.4168H32.2405C31.0378 12.1985 28.4516 7.8673 25.7699 7.5943L25.5 7.58347V7.5813ZM32.13 8.85963L32.3552 9.2388C33.779 11.6481 34.8564 14.8115 35.4896 18.419H41.9666C40.1218 14.2678 36.8383 10.9577 32.7463 9.12396L32.13 8.8618V8.85963Z" fill="#FF5A3C"/>
<path d="M47.8125 36.8335C47.8125 34.2476 46.805 31.7677 45.0117 29.9392C43.2184 28.1107 40.7861 27.0835 38.25 27.0835C35.7139 27.0835 33.2816 28.1107 31.4883 29.9392C29.695 31.7677 28.6875 34.2476 28.6875 36.8335C28.6875 40.87 31.705 45.0993 37.6125 49.6168C37.7964 49.7575 38.0201 49.8335 38.25 49.8335C38.4799 49.8335 38.7036 49.7575 38.8875 49.6168C44.795 45.0993 47.8125 40.87 47.8125 36.8335ZM35.0625 36.8335C35.0625 35.9715 35.3983 35.1449 35.9961 34.5354C36.5939 33.9259 37.4046 33.5835 38.25 33.5835C39.0954 33.5835 39.9061 33.9259 40.5039 34.5354C41.1017 35.1449 41.4375 35.9715 41.4375 36.8335C41.4375 37.6954 41.1017 38.5221 40.5039 39.1316C39.9061 39.7411 39.0954 40.0835 38.25 40.0835C37.4046 40.0835 36.5939 39.7411 35.9961 39.1316C35.3983 38.5221 35.0625 37.6954 35.0625 36.8335Z" fill="#FF5A3C"/>
</svg>
