<svg width="50" height="49" viewBox="0 0 50 49" fill="none" xmlns="http://www.w3.org/2000/svg">
<path d="M42.3193 33.1702C40.092 30.8631 37.4079 29.0255 34.4312 27.7696C31.4545 26.5137 28.2477 25.866 25.0068 25.866C21.766 25.866 18.5592 26.5137 15.5825 27.7696C12.6058 29.0255 9.92169 30.8631 7.69434 33.1702C7.21144 33.6757 6.94324 34.3425 6.94434 35.0349V42.1944C6.94434 42.9164 7.237 43.6088 7.75793 44.1193C8.27887 44.6298 8.9854 44.9166 9.72212 44.9166H40.2777C41.0144 44.9166 41.7209 44.6298 42.2419 44.1193C42.7628 43.6088 43.0554 42.9164 43.0554 42.1944V35.0349C43.0603 34.3444 42.7972 33.6778 42.3193 33.1702ZM40.2777 42.1944H9.72212V35.0213C11.6905 32.9901 14.06 31.3726 16.6865 30.2674C19.313 29.1621 22.1415 28.5921 24.9999 28.5921C27.8583 28.5921 30.6868 29.1621 33.3133 30.2674C35.9398 31.3726 38.3093 32.9901 40.2777 35.0213V42.1944Z" fill="#FF5A3C"/>
<path d="M24.9999 23.1388C27.2555 23.1375 29.4404 22.3676 31.1804 20.961H30.8749C29.7482 20.9426 28.6594 20.5597 27.7777 19.8721C26.6422 20.3512 25.3969 20.5245 24.1703 20.3743C22.9437 20.224 21.7802 19.7556 20.8 19.0174C19.8199 18.2792 19.0585 17.298 18.5947 16.1751C18.1308 15.0521 17.9812 13.8282 18.1613 12.6297C18.3414 11.4312 18.8447 10.3015 19.6192 9.3573C20.3937 8.41311 21.4113 7.68864 22.5671 7.2587C23.7228 6.82876 24.9746 6.70894 26.1934 6.9116C27.4121 7.11427 28.5536 7.63208 29.4999 8.41157L30.8888 6.01601C29.6598 5.10379 28.2272 4.49105 26.709 4.22837C25.1908 3.96569 23.6306 4.06059 22.1573 4.50524C20.6839 4.94989 19.3395 5.73154 18.2351 6.78569C17.1307 7.83984 16.298 9.13626 15.8056 10.568C15.3132 11.9997 15.1753 13.5256 15.4033 15.0198C15.6312 16.514 16.2185 17.9337 17.1166 19.1617C18.0147 20.3896 19.198 21.3907 20.5687 22.0822C21.9394 22.7737 23.4582 23.1359 24.9999 23.1388Z" fill="#FF5A3C"/>
<path d="M37.2916 1.5516L29.3471 14.9722C29.1623 15.238 29.0562 15.5488 29.0406 15.8702C29.025 16.1915 29.1004 16.5108 29.2586 16.7927C29.4168 17.0746 29.6516 17.308 29.9369 17.4672C30.2222 17.6263 30.5468 17.705 30.8749 17.6944H46.7777C47.1058 17.705 47.4305 17.6263 47.7158 17.4672C48.001 17.308 48.2358 17.0746 48.394 16.7927C48.5522 16.5108 48.6277 16.1915 48.612 15.8702C48.5964 15.5488 48.4903 15.238 48.3055 14.9722L40.361 1.5516C40.2044 1.28898 39.9803 1.07115 39.711 0.919761C39.4417 0.768376 39.1367 0.688721 38.8263 0.688721C38.5159 0.688721 38.2109 0.768376 37.9416 0.919761C37.6724 1.07115 37.4483 1.28898 37.2916 1.5516Z" fill="#FF5A3C"/>
</svg>
