<svg width="51" height="51" viewBox="0 0 51 51" fill="none" xmlns="http://www.w3.org/2000/svg">
<path d="M47.7556 24.4942L26.5056 3.24423C26.2402 2.98038 25.8811 2.83228 25.5069 2.83228C25.1326 2.83228 24.7736 2.98038 24.5081 3.24423L3.25813 24.4942C3.02604 24.7652 2.90477 25.1138 2.91854 25.4704C2.93231 25.8269 3.08011 26.1651 3.33241 26.4174C3.58471 26.6697 3.92293 26.8175 4.27947 26.8313C4.63601 26.8451 4.98462 26.7238 5.25563 26.4917L25.4998 6.24756L45.744 26.5059C46.015 26.738 46.3636 26.8593 46.7201 26.8455C47.0767 26.8317 47.4149 26.6839 47.6672 26.4316C47.9195 26.1793 48.0673 25.8411 48.0811 25.4846C48.0948 25.128 47.9735 24.7794 47.7415 24.5084L47.7556 24.4942Z" fill="#FF5A3C"/>
<path d="M39.6667 45.3332H32.5833V31.1666H18.4167V45.3332H11.3333V25.4999L8.5 28.3332V45.3332C8.5 46.0847 8.79851 46.8054 9.32986 47.3367C9.86122 47.8681 10.5819 48.1666 11.3333 48.1666H21.25V33.9999H29.75V48.1666H39.6667C40.4181 48.1666 41.1388 47.8681 41.6701 47.3367C42.2015 46.8054 42.5 46.0847 42.5 45.3332V27.9932L39.6667 25.1599V45.3332Z" fill="#FF5A3C"/>
</svg>
