<svg width="14" height="14" viewBox="0 0 14 14" fill="none" xmlns="http://www.w3.org/2000/svg">
<path d="M6.5918 3.19336C4.7168 3.19336 3.22266 4.7168 3.22266 6.5625C3.22266 8.4375 4.7168 9.93164 6.5918 9.93164C8.4375 9.93164 9.96094 8.4375 9.96094 6.5625C9.96094 4.7168 8.4375 3.19336 6.5918 3.19336ZM6.5918 8.75977C5.39062 8.75977 4.39453 7.79297 4.39453 6.5625C4.39453 5.36133 5.36133 4.39453 6.5918 4.39453C7.79297 4.39453 8.75977 5.36133 8.75977 6.5625C8.75977 7.79297 7.79297 8.75977 6.5918 8.75977ZM10.8691 3.07617C10.8691 2.63672 10.5176 2.28516 10.0781 2.28516C9.63867 2.28516 9.28711 2.63672 9.28711 3.07617C9.28711 3.51562 9.63867 3.86719 10.0781 3.86719C10.5176 3.86719 10.8691 3.51562 10.8691 3.07617ZM13.0957 3.86719C13.0371 2.8125 12.8027 1.875 12.041 1.11328C11.2793 0.351562 10.3418 0.117188 9.28711 0.0585938C8.20312 0 4.95117 0 3.86719 0.0585938C2.8125 0.117188 1.9043 0.351562 1.11328 1.11328C0.351562 1.875 0.117188 2.8125 0.0585938 3.86719C0 4.95117 0 8.20312 0.0585938 9.28711C0.117188 10.3418 0.351562 11.25 1.11328 12.041C1.9043 12.8027 2.8125 13.0371 3.86719 13.0957C4.95117 13.1543 8.20312 13.1543 9.28711 13.0957C10.3418 13.0371 11.2793 12.8027 12.041 12.041C12.8027 11.25 13.0371 10.3418 13.0957 9.28711C13.1543 8.20312 13.1543 4.95117 13.0957 3.86719ZM11.6895 10.4297C11.4844 11.0156 11.0156 11.4551 10.459 11.6895C9.58008 12.041 7.5293 11.9531 6.5918 11.9531C5.625 11.9531 3.57422 12.041 2.72461 11.6895C2.13867 11.4551 1.69922 11.0156 1.46484 10.4297C1.11328 9.58008 1.20117 7.5293 1.20117 6.5625C1.20117 5.625 1.11328 3.57422 1.46484 2.69531C1.69922 2.13867 2.13867 1.69922 2.72461 1.46484C3.57422 1.11328 5.625 1.20117 6.5918 1.20117C7.5293 1.20117 9.58008 1.11328 10.459 1.46484C11.0156 1.66992 11.4551 2.13867 11.6895 2.69531C12.041 3.57422 11.9531 5.625 11.9531 6.5625C11.9531 7.5293 12.041 9.58008 11.6895 10.4297Z" fill="white"/>
</svg>
