<svg width="17" height="17" viewBox="0 0 17 17" fill="none" xmlns="http://www.w3.org/2000/svg">
<path fill-rule="evenodd" clip-rule="evenodd" d="M5.13552 7.08317C5.13552 5.22496 6.64189 3.71859 8.5001 3.71859C10.3583 3.71859 11.8647 5.22496 11.8647 7.08317C11.8647 8.94138 10.3583 10.4478 8.5001 10.4478C6.64189 10.4478 5.13552 8.94138 5.13552 7.08317ZM8.5001 4.78109C7.22869 4.78109 6.19802 5.81177 6.19802 7.08317C6.19802 8.35458 7.22869 9.38525 8.5001 9.38525C9.7715 9.38525 10.8022 8.35458 10.8022 7.08317C10.8022 5.81177 9.7715 4.78109 8.5001 4.78109Z" fill="#FF5A3C"/>
<path fill-rule="evenodd" clip-rule="evenodd" d="M2.49652 6.27344C2.7475 3.22859 5.29195 0.885254 8.34712 0.885254H8.65308C11.7083 0.885254 14.2527 3.22859 14.5037 6.27344C14.6385 7.90909 14.1333 9.53322 13.0944 10.8037L9.69929 14.9558C9.0795 15.7138 7.9207 15.7138 7.30091 14.9558L3.90582 10.8037C2.86694 9.53322 2.3617 7.90909 2.49652 6.27344ZM8.34712 1.94775C5.84491 1.94775 3.76099 3.86697 3.55543 6.36073C3.44322 7.72203 3.86372 9.07375 4.72836 10.1312L8.12344 14.2833C8.31811 14.5214 8.68209 14.5214 8.87676 14.2833L12.2718 10.1312C13.1365 9.07375 13.557 7.72203 13.4448 6.36073C13.2392 3.86697 11.1553 1.94775 8.65308 1.94775H8.34712Z" fill="#FF5A3C"/>
</svg>
