<svg width="40" height="40" viewBox="0 0 40 40" fill="none" xmlns="http://www.w3.org/2000/svg">
<g clip-path="url(#clip0_2_604)">
<path fill-rule="evenodd" clip-rule="evenodd" d="M14.3944 18.5254C6.44448 18.5254 0 24.9698 0 32.9192C0 34.1809 0.162971 35.4039 0.467869 36.5697H27.8912C28.5587 36.7097 29.2502 36.7836 29.9594 36.7836C35.5048 36.7836 40 32.2884 40 26.743C40 21.1975 35.5048 16.7023 29.9594 16.7023C26.6951 16.7023 23.7948 18.2606 21.961 20.6734C19.7621 19.3118 17.1703 18.5254 14.3944 18.5254ZM26.0344 28.564L28.2685 28.2239C28.3625 28.6531 28.5543 28.9795 28.8455 29.2007C29.1342 29.4244 29.5419 29.5355 30.0622 29.5355C30.6367 29.5355 31.0684 29.4298 31.3601 29.2198C31.5543 29.0711 31.6513 28.8719 31.6513 28.6232C31.6513 28.4564 31.5974 28.3159 31.4922 28.2053C31.3816 28.1001 31.1335 28.0002 30.7503 27.9112C28.9561 27.5147 27.8207 27.1531 27.3401 26.8266C26.674 26.371 26.3422 25.7397 26.3422 24.9331C26.3422 24.202 26.6309 23.5892 27.2055 23.093C27.6225 22.7328 28.2058 22.5032 28.9556 22.4044V21.2602H30.9641V22.4161C31.5822 22.5018 32.0741 22.6672 32.4392 22.9124C32.9976 23.2897 33.3833 23.8457 33.5937 24.5822L31.5054 24.9708C31.4163 24.6415 31.2441 24.3879 30.993 24.2127C30.7419 24.037 30.3832 23.9509 29.9168 23.9509C29.3285 23.9509 28.9076 24.0317 28.6512 24.1966C28.4814 24.3126 28.3977 24.4633 28.3977 24.6468C28.3977 24.8059 28.4706 24.941 28.6189 25.0516C28.8215 25.1999 29.5145 25.4079 30.7018 25.6775C31.8886 25.9472 32.7172 26.2766 33.1865 26.6676C33.6529 27.0616 33.8849 27.6146 33.8849 28.3213C33.8849 29.0901 33.5638 29.7538 32.9193 30.3068C32.4402 30.7194 31.7888 30.9788 30.9641 31.084V32.2258H28.9556V31.0536C28.3169 30.9489 27.7796 30.7453 27.343 30.4443C26.6765 29.9828 26.2399 29.3574 26.0344 28.564ZM29.9594 19.2673C25.8303 19.2673 22.4837 22.6143 22.4837 26.743C22.4837 30.8721 25.8303 34.2191 29.9594 34.2191C34.0885 34.2191 37.435 30.8721 37.435 26.743C37.435 22.6143 34.0885 19.2673 29.9594 19.2673ZM14.3944 3.21631C10.8237 3.21631 7.92933 6.11065 7.92933 9.68134C7.92933 13.252 10.8237 16.1464 14.3944 16.1464C17.9646 16.1464 20.8594 13.252 20.8594 9.68134C20.8594 6.11065 17.9646 3.21631 14.3944 3.21631Z" fill="#FF5A3C"/>
</g>
<defs>
<clipPath id="clip0_2_604">
<rect width="40" height="40" fill="white" transform="matrix(-1 0 0 1 40 0)"/>
</clipPath>
</defs>
</svg>
