<svg width="44" height="47" viewBox="0 0 44 47" fill="none" xmlns="http://www.w3.org/2000/svg">
<path d="M20.9098 39.9106H15.3559H13.5622C8.84394 39.9106 5.00408 39.63 5.00408 34.9679V23.2109H2.28727C1.36039 23.2109 0.527832 22.6549 0.173464 21.8068C-0.179949 20.9538 0.0172058 19.9757 0.668779 19.3239L18.731 1.33488C19.594 0.474377 20.7438 0 21.9641 0C23.1853 0 24.3351 0.474377 25.1981 1.33488C28.1875 4.31211 30.4294 6.54503 31.9241 8.03365C32.0326 8.14167 32.3328 8.44071 32.3973 8.50485C32.4402 8.54763 32.4617 8.25276 32.4617 7.62027C32.5731 6.04821 33.8715 4.80726 35.4795 4.80726H35.4976C37.1761 4.80726 38.5344 6.16015 38.5344 7.83088V14.1125C38.5344 14.2795 38.5116 14.4246 38.4859 14.5726L43.2603 19.3239C43.9147 19.9757 44.1091 20.9538 43.7547 21.8068C43.4013 22.6549 42.5677 23.2109 41.6418 23.2109H38.5344V24.714C41.7865 26.8788 43.9295 30.5779 43.9295 34.7775C43.9295 41.4494 38.5208 46.8581 31.8489 46.8581C27.0123 46.8581 22.8396 44.0159 20.9098 39.9106ZM31.8489 45.7599C37.9142 45.7599 42.8312 40.8429 42.8312 34.7775C42.8312 28.7121 37.9142 23.7951 31.8489 23.7951C25.7835 23.7951 20.8665 28.7121 20.8665 34.7775C20.8665 40.8429 25.7835 45.7599 31.8489 45.7599ZM36.3908 36.7929C36.3908 37.601 36.1011 38.2995 35.5218 38.8886C34.9425 39.4776 34.1028 39.8549 33.0026 40.0204V40.7652C33.0026 41.2492 32.6103 41.6415 32.1264 41.6415C31.6424 41.6415 31.25 41.2492 31.25 40.7652V40.0788C30.5198 40.0301 29.8286 39.906 29.1763 39.7064C28.7704 39.5822 28.4079 39.4401 28.0887 39.2801C27.7813 39.126 27.6493 38.7574 27.7892 38.4433C27.7939 38.4328 27.7983 38.4228 27.8026 38.4132L28.2775 37.3465C28.3897 37.0947 28.6847 36.9814 28.9366 37.0935C28.9479 37.0985 28.9589 37.104 28.9698 37.1098C28.9951 37.1234 29.0188 37.1358 29.0409 37.1469C29.3636 37.3102 29.7155 37.4502 30.0964 37.5669C30.7 37.7519 31.2939 37.8444 31.8781 37.8444C32.988 37.8444 33.5429 37.5669 33.5429 37.0119C33.5429 36.7198 33.3847 36.5032 33.0683 36.362C32.7519 36.2209 32.2431 36.0724 31.5421 35.9166C30.773 35.7511 30.1304 35.5734 29.6144 35.3836C29.0984 35.1937 28.6554 34.8895 28.2854 34.4708C27.9154 34.0521 27.7305 33.4874 27.7305 32.7767C27.7305 31.9394 28.0323 31.2214 28.6359 30.6226C29.2396 30.0238 30.1109 29.6563 31.25 29.52V28.7898C31.25 28.3058 31.6424 27.9135 32.1264 27.9135C32.6103 27.9135 33.0026 28.3058 33.0026 28.7898V29.4908C33.5575 29.5395 34.0906 29.6368 34.6018 29.7829C34.962 29.8858 35.2945 30.0105 35.5991 30.1569C35.6245 30.1692 35.6534 30.1835 35.6855 30.2001C35.8461 30.2828 35.9165 30.4749 35.8472 30.6418L35.1842 32.2392C35.1294 32.3715 34.9778 32.4342 34.8456 32.3793C34.8398 32.3769 34.834 32.3742 34.8283 32.3714C34.7798 32.347 34.7384 32.3266 34.7042 32.3104C33.8616 31.9105 33.0413 31.7106 32.2432 31.7106C31.6687 31.7106 31.2501 31.7958 30.9872 31.9662C30.7243 32.1366 30.5929 32.3581 30.5929 32.6307C30.5929 32.9033 30.7487 33.1077 31.0602 33.244C31.3718 33.3803 31.8732 33.5215 32.5645 33.6676C33.3434 33.8331 33.9884 34.0108 34.4995 34.2006C35.0107 34.3905 35.4537 34.6923 35.8285 35.1061C36.2034 35.5199 36.3908 36.0821 36.3908 36.7929Z" fill="#FF5A3C"/>
</svg>
