<svg width="15" height="13" viewBox="0 0 15 13" fill="none" xmlns="http://www.w3.org/2000/svg">
<path d="M13.4473 3.01758C14.0332 2.57812 14.5605 2.05078 14.9707 1.43555C14.4434 1.66992 13.8281 1.8457 13.2129 1.9043C13.8574 1.52344 14.3262 0.9375 14.5605 0.205078C13.9746 0.556641 13.3008 0.820312 12.627 0.966797C12.041 0.351562 11.25 0 10.3711 0C8.67188 0 7.29492 1.37695 7.29492 3.07617C7.29492 3.31055 7.32422 3.54492 7.38281 3.7793C4.83398 3.63281 2.54883 2.40234 1.02539 0.556641C0.761719 0.996094 0.615234 1.52344 0.615234 2.10938C0.615234 3.16406 1.14258 4.10156 1.99219 4.6582C1.49414 4.62891 0.996094 4.51172 0.585938 4.27734V4.30664C0.585938 5.80078 1.64062 7.03125 3.04688 7.32422C2.8125 7.38281 2.51953 7.44141 2.25586 7.44141C2.05078 7.44141 1.875 7.41211 1.66992 7.38281C2.05078 8.61328 3.19336 9.49219 4.54102 9.52148C3.48633 10.3418 2.16797 10.8398 0.732422 10.8398C0.46875 10.8398 0.234375 10.8105 0 10.7812C1.34766 11.6602 2.95898 12.1582 4.7168 12.1582C10.3711 12.1582 13.4473 7.5 13.4473 3.42773C13.4473 3.28125 13.4473 3.16406 13.4473 3.01758Z" fill="#FF5A3C"/>
</svg>
