<svg width="14" height="11" viewBox="0 0 14 11" fill="none" xmlns="http://www.w3.org/2000/svg">
<path d="M13.5891 1.46432C13.7557 1.63099 13.8391 1.83337 13.8391 2.07146C13.8391 2.30956 13.7557 2.51194 13.5891 2.67861L7.12479 9.14289L5.91051 10.3572C5.74384 10.5238 5.54146 10.6072 5.30336 10.6072C5.06527 10.6072 4.86289 10.5238 4.69622 10.3572L3.48193 9.14289L0.249791 5.91075C0.0831241 5.74408 -0.000209212 5.5417 -0.000209212 5.30361C-0.000209212 5.06551 0.0831241 4.86313 0.249791 4.69646L1.46408 3.48218C1.63074 3.31551 1.83312 3.23218 2.07122 3.23218C2.30931 3.23218 2.5117 3.31551 2.67836 3.48218L5.30336 6.11611L11.1605 0.250034C11.3272 0.0833677 11.5296 3.43323e-05 11.7676 3.43323e-05C12.0057 3.43323e-05 12.2081 0.0833677 12.3748 0.250034L13.5891 1.46432Z" fill="#FF5A3C"/>
</svg>
